{
	"asset":{
		"generator":"Khronos glTF Blender I/O v3.5.30",
		"version":"2.0"
	},
	"scene":0,
	"scenes":[
		{
			"name":"Scene",
			"nodes":[
				0
			]
		}
	],
	"nodes":[
		{
			"mesh":0,
			"name":"twlogo",
			"scale":[
				4,
				4,
				4
			]
		}
	],
	"materials":[
		{
			"doubleSided":true,
			"name":"Material.001",
			"pbrMetallicRoughness":{
				"baseColorFactor":[
					0.8000000715255737,
					0.11133582144975662,
					0,
					1
				],
				"metallicFactor":0,
				"roughnessFactor":0.5
			}
		}
	],
	"meshes":[
		{
			"name":"subdivide1",
			"primitives":[
				{
					"attributes":{
						"POSITION":0,
						"TEXCOORD_0":1,
						"NORMAL":2
					},
					"indices":3,
					"material":0
				}
			]
		}
	],
	"accessors":[
		{
			"bufferView":0,
			"componentType":5126,
			"count":18218,
			"max":[
				0.38525494933128357,
				0.39797401428222656,
				4.1182804125128314e-05
			],
			"min":[
				-0.39697369933128357,
				-0.37329110503196716,
				-0.2500411570072174
			],
			"type":"VEC3"
		},
		{
			"bufferView":1,
			"componentType":5126,
			"count":18218,
			"type":"VEC2"
		},
		{
			"bufferView":2,
			"componentType":5126,
			"count":18218,
			"type":"VEC3"
		},
		{
			"bufferView":3,
			"componentType":5123,
			"count":27696,
			"type":"SCALAR"
		}
	],
	"bufferViews":[
		{
			"buffer":0,
			"byteLength":218616,
			"byteOffset":0,
			"target":34962
		},
		{
			"buffer":0,
			"byteLength":145744,
			"byteOffset":218616,
			"target":34962
		},
		{
			"buffer":0,
			"byteLength":218616,
			"byteOffset":364360,
			"target":34962
		},
		{
			"buffer":0,
			"byteLength":55392,
			"byteOffset":582976,
			"target":34963
		}
	],
	"buffers":[
		{
			"byteLength":638368,
			"uri":"customModel.bin"
		}
	]
}
