{
	"asset":{
		"generator":"Khronos glTF Blender I/O v3.6.27",
		"version":"2.0"
	},
	"scene":0,
	"scenes":[
		{
			"name":"Scene",
			"nodes":[
				0
			]
		}
	],
	"nodes":[
		{
			"mesh":0,
			"name":"OUT_Logo",
			"rotation":[
				0.7071068286895752,
				0,
				0,
				0.7071068286895752
			],
			"translation":[
				0,
				0,
				-0.15000000596046448
			]
		}
	],
	"meshes":[
		{
			"name":"OUT_Logo.003",
			"primitives":[
				{
					"attributes":{
						"POSITION":0,
						"NORMAL":1,
						"TEXCOORD_0":2
					},
					"indices":3
				}
			]
		}
	],
	"accessors":[
		{
			"bufferView":0,
			"componentType":5126,
			"count":12318,
			"max":[
				0.38700002431869507,
				0.30000001192092896,
				0.3970000147819519
			],
			"min":[
				-0.38700002431869507,
				0,
				-0.3970000147819519
			],
			"type":"VEC3"
		},
		{
			"bufferView":1,
			"componentType":5126,
			"count":12318,
			"type":"VEC3"
		},
		{
			"bufferView":2,
			"componentType":5126,
			"count":12318,
			"type":"VEC2"
		},
		{
			"bufferView":3,
			"componentType":5123,
			"count":66816,
			"type":"SCALAR"
		}
	],
	"bufferViews":[
		{
			"buffer":0,
			"byteLength":147816,
			"byteOffset":0,
			"target":34962
		},
		{
			"buffer":0,
			"byteLength":147816,
			"byteOffset":147816,
			"target":34962
		},
		{
			"buffer":0,
			"byteLength":98544,
			"byteOffset":295632,
			"target":34962
		},
		{
			"buffer":0,
			"byteLength":133632,
			"byteOffset":394176,
			"target":34963
		}
	],
	"buffers":[
		{
			"byteLength":527808,
			"uri":"twlogo.bin"
		}
	]
}
